<svg version="1.1" xmlns="http://www.w3.org/2000/svg" style="display: block;" viewBox="0 0 2048 2048" width="512" height="512" preserveAspectRatio="none">
<path transform="translate(0,0)" fill="#3DD68C" d="M 1023.54 76.4386 C 1038.67 75.8209 1056.85 76.0833 1072.14 76.1655 C 1091.53 76.2698 1113.53 75.6141 1132.73 76.5978 C 1264.25 82.6137 1392.7 118.279 1508.5 180.929 C 1526.42 190.85 1545.94 203.26 1563.3 214.307 C 1574.52 221.194 1585.57 231.704 1596.63 238.482 C 1641.11 265.756 1680.82 298.304 1718.48 334.304 C 1726.45 341.917 1733.61 351.728 1741.55 359.516 C 1759.62 377.247 1776.35 396.022 1791.3 416.483 C 1801.73 430.645 1810.14 445.61 1819.62 460.318 C 1825.28 469.099 1832.53 477.474 1838.17 486.647 C 1864.41 528.549 1884.01 572.09 1903.58 617.309 C 1918.34 651.411 1930.76 680.666 1940.78 716.609 C 1950.34 750.921 1966.35 782.877 1968.89 819.529 C 1969.21 824.159 1971.6 826.183 1974.61 829.581 C 1976.04 849.109 1979.43 866.327 1980.41 887.115 L 1987.11 893.141 C 1988.01 916.022 1990.14 935.113 1991.58 957.272 C 1992.84 977.97 1990.83 999.982 1991.93 1020.49 C 1994.51 1068.81 1989.05 1114.79 1986.94 1162.62 C 1984.67 1164.75 1983.23 1166.56 1981.22 1168.91 C 1980.15 1180.89 1978.82 1207.69 1975.27 1218.84 C 1968.14 1241.23 1966.63 1263.5 1960.91 1285.56 C 1951.61 1321.44 1938.99 1357.79 1926.16 1392.53 C 1921.68 1404.73 1914.51 1416.92 1909.97 1428.91 C 1888.68 1485.17 1856.81 1533.6 1822.14 1582.39 C 1806.75 1604.04 1789.43 1586.32 1775.77 1574.45 C 1737.03 1540.81 1695.94 1510.48 1656.93 1477.19 C 1654.12 1475.18 1640.06 1462.42 1639.38 1459.16 C 1637.74 1451.24 1658.06 1423.23 1661.52 1417.3 C 1672.09 1401.1 1678.45 1382.48 1686.96 1365.49 C 1705.91 1327.63 1722.04 1288.7 1736.91 1248.99 C 1748.4 1217.4 1757.39 1184.96 1763.82 1151.97 C 1765.93 1141.35 1769.79 1130.47 1771.38 1120.07 C 1779.3 1068.6 1775.98 1028.48 1771.38 977.919 C 1762.06 966.929 1762.58 951.941 1757.07 938.692 C 1730.92 875.792 1671.73 817.29 1601.17 811.908 C 1538.86 807.155 1483.94 835.832 1437.75 874.667 C 1392.69 912.555 1364.83 964.5 1344.2 1018.61 C 1339.08 1032.41 1333.22 1080.28 1332.28 1095.76 C 1329.72 1146.14 1332.78 1196.65 1341.38 1246.35 C 1359.97 1357.05 1397.15 1449.54 1472.47 1534.81 C 1487.17 1549.56 1505.17 1568.48 1520.61 1582.05 C 1559.43 1615.47 1604.8 1644.53 1650.65 1667.33 C 1699.62 1691.68 1753.98 1703.74 1805.94 1718.37 C 1786.16 1743.26 1753.72 1769.18 1732.19 1794.74 C 1731.64 1825.58 1677.58 1855.63 1654.71 1878.85 L 1653.61 1879.98 C 1628.42 1880.86 1621.5 1873.8 1598.97 1865.15 C 1572.32 1854.92 1548.63 1841.52 1524.11 1827.06 C 1514.43 1821 1505.88 1813.75 1496.11 1807.77 C 1458.03 1784.46 1421.88 1756.69 1387.34 1728.47 C 1372.51 1716.36 1358.77 1699.48 1344.55 1686.38 C 1332.89 1674.16 1319.53 1662.55 1309.14 1649.25 C 1257.76 1583.45 1212.52 1516.34 1183.79 1438.01 C 1150.57 1347.4 1136.38 1259.94 1131.8 1164.08 C 1131.28 1153.22 1126.42 1144.65 1124.5 1134.16 C 1125.57 1119 1121.27 1087.39 1124.98 1073.5 C 1131.07 1050.68 1133.16 1048.53 1132.57 1022.16 C 1132.02 997.886 1138.22 968.949 1144.07 945.496 C 1148.59 927.399 1150.59 907.925 1156.62 890.054 C 1178.29 827.153 1206.51 763.263 1250.23 712.368 C 1267.31 693.031 1292.87 666.924 1313.9 653.698 C 1328.17 644.718 1343.94 637.132 1358.35 628.566 C 1369.69 621.826 1382.77 609.612 1394.06 603.401 C 1452.45 571.299 1519.48 551.274 1585.73 547.739 C 1562.44 524.777 1541.46 496.365 1516.54 473.852 C 1507.19 465.398 1497.8 449.935 1487.81 440.408 C 1461.42 415.236 1427.59 399.754 1396.08 381.999 C 1368.25 366.314 1338.32 349.442 1309.33 336.312 C 1290.67 327.575 1269.49 323.59 1250.41 317.055 C 1201.35 300.27 1147.8 293.001 1096.22 288.172 C 1069.75 285.694 1036.4 289.175 1009.26 287.79 C 995.14 287.07 977.865 287.709 963.705 288.172 C 946.624 288.731 928.083 292.289 910.885 293.444 C 888.085 296.45 864.698 300.523 842.275 305.507 C 812.72 313.422 803.865 324.673 770.166 323.952 C 764.328 318.149 758.852 310.816 753.304 304.613 C 720.431 267.854 683.16 235.294 650.778 198.007 C 642.092 188.005 631.88 178.683 623.918 168.141 C 622.474 158.187 633.179 151.175 640.801 146.95 C 643.414 149.57 646.179 152.795 648.688 155.576 C 659.783 150.708 686.796 142.508 699.227 138.374 C 791.083 107.396 886.376 87.7461 982.994 79.8614 C 997.166 78.6118 1009.16 76.9838 1023.54 76.4386 z"/>
<path transform="translate(0,0)" fill="#3DD68C" d="M 405.588 164.065 C 410.882 164.731 431.217 174.384 437.516 177.006 C 494.408 200.685 545.642 233.492 595.846 269.042 C 803.785 416.281 910.197 640.239 912.07 895.061 L 919.673 901.196 C 919.945 925.363 920.718 955.059 919.17 978.688 C 916.761 980.632 914.782 983.01 912.696 985.311 C 911.126 998.543 912.464 1015.19 911.538 1028.77 C 910.409 1045.34 907.924 1061.67 906.622 1078.29 C 904.919 1080.38 902.332 1082.9 901.835 1085.63 C 898.02 1106.59 896.042 1126.71 889.861 1147.33 C 867.188 1222.97 829.486 1299.56 773.817 1356.38 C 760.19 1369.05 737.897 1391.35 721.063 1398.66 C 691.102 1411.68 667.899 1431.39 640.652 1447.02 C 585.349 1478.38 523.012 1495.26 459.437 1496.07 C 468.75 1514.96 487.756 1528.97 502.24 1544.67 C 520.769 1564.75 546.032 1595.52 566.255 1613.24 C 587.432 1631.8 630.95 1653.37 656.014 1667.29 C 673.831 1677.61 691.29 1689.02 709.86 1697.98 C 750.533 1717.22 793.602 1728.63 836.955 1740.47 C 882.95 1753.03 935.49 1756.68 983.13 1759.96 C 1032.74 1763.37 1084.06 1756.71 1133.27 1752.12 C 1181.72 1747.6 1220.07 1734.88 1265.76 1719.26 L 1267.55 1719.95 C 1280.55 1724.92 1286.2 1736.7 1295.83 1746.4 C 1314.31 1765.01 1333.71 1783.16 1351.81 1802.12 C 1368.39 1819.5 1383.08 1838.77 1400.94 1855.09 C 1408.12 1862.61 1416.87 1871.15 1420.41 1881.15 C 1422.38 1886.72 1413.58 1890.43 1410.85 1892.62 C 1401.3 1900.29 1398.31 1888.75 1388.96 1892.22 C 1360.35 1902.84 1331.08 1913.75 1301.74 1922.16 C 1222.3 1944.29 1141.03 1959.2 1058.91 1966.71 C 1035.62 1968.89 1011.95 1967.12 988.644 1970.85 C 967.474 1974.26 945.126 1968.45 924.491 1968.14 C 785.755 1966.03 644.209 1927.74 524.33 1857.57 C 506.071 1846.88 489.611 1834.97 471.802 1823.62 C 441.745 1804.47 414.085 1786.2 386.6 1763.2 C 332.586 1721.93 285.041 1672.82 245.54 1617.51 C 236.924 1605.34 230.17 1593.21 222.184 1580.83 C 213.504 1567.38 202.808 1555.48 195.044 1541.16 C 186.584 1525.57 178.739 1509.07 171.204 1493.02 C 144.569 1436.29 117.674 1376.86 100.454 1316.63 C 96.4634 1302.67 89.4523 1288.57 85.148 1274.45 C 79.7269 1256.66 77.3648 1238.79 74.583 1220.47 L 69.5712 1214.88 C 66.0245 1192.9 64.5681 1179.2 63.6664 1157.18 L 56.6626 1150.59 C 56.0985 1141.68 56.0458 1132.52 55.4937 1123.42 C 54.9703 1110.89 52.5758 1097.77 52.4219 1085.3 C 51.8464 1038.64 51.8659 991.881 52.409 945.218 C 52.5556 932.62 55.0256 918.933 55.8351 906.156 C 56.2946 898.903 56.798 887.197 59.3158 880.449 C 59.5667 879.954 62.2626 877.147 62.5445 874.769 C 64.4324 862.949 64.5726 849.899 66.9837 838.196 C 71.8243 814.701 77.101 791.067 81.6626 767.489 C 83.9987 755.414 89.8173 742.502 93.2186 730.644 C 96.5994 718.858 100.353 707.183 103.909 695.457 C 114.124 666.141 125.361 637.577 138.82 609.581 C 145.73 595.207 151.753 579.364 158.906 565.279 C 179.645 525.398 203.932 487.464 231.472 451.937 C 241.647 451.645 246.721 453.062 254.952 459.376 C 269.409 470.464 282.475 483.321 296.709 494.761 L 370.423 554.254 C 380.772 562.75 391.522 571.182 401.276 580.311 C 406.123 584.615 403.376 595.689 400.55 600.534 C 387.767 622.455 375.082 643.928 364.29 666.969 C 357.253 681.993 347.62 697.327 341.352 712.632 C 327.991 745.255 315.184 778.222 302.552 811.13 C 298.316 822.167 296.289 834.429 292.533 845.51 C 284.944 867.898 280.167 887.027 278.637 910.766 L 273.14 916.861 C 266.409 963.043 265.985 1009.93 271.879 1056.22 C 272.382 1059.92 273.225 1066.93 274.183 1070.9 C 275.218 1071.69 276.252 1072.48 277.286 1073.27 C 280.524 1094.19 291.77 1120.63 302.171 1138.13 C 309.678 1150.76 316.599 1156.29 323.265 1165.02 C 351.708 1202.28 390.02 1223.85 435.01 1234.41 C 460.279 1240.46 482.251 1234.6 506.186 1227.11 C 516.49 1223.76 528.528 1221.58 538.228 1216.61 C 577.903 1196.29 614.521 1168.49 642.504 1133.6 C 647.92 1126.84 655.764 1119.14 660.09 1111.98 C 669.465 1096.46 677.986 1080.14 685.941 1063.86 C 693.516 1047.98 700.28 1032.85 703.91 1015.49 C 710.461 984.152 713.797 950.864 715.887 918.924 C 716.473 909.959 713.383 891.2 712.983 881.083 C 709.979 805.048 693.413 724.77 664.316 654.384 C 650.513 626.019 635.143 598.114 617.978 571.75 C 567.102 493.613 506.116 440.944 425.619 396.378 C 382.795 372.24 337.202 353.384 289.839 340.223 C 279.357 337.385 245.244 333.257 240.18 325.449 C 241.002 316.13 282.442 283.124 291.37 274.766 C 299.884 266.653 308.153 258.286 316.166 249.677 L 316.091 234.697 C 334.858 214.241 354.525 196.387 375.977 178.732 C 386.164 170.348 393.172 167.782 405.588 164.065 z"/>
<path transform="translate(0,0)" fill="#3DD68C" d="M 1682.12 1116.34 C 1695.72 1115.96 1709.03 1115.24 1722.47 1117.62 C 1723.87 1127.17 1726.48 1159.42 1721.45 1168.62 C 1720.07 1171.15 1716.55 1171.12 1713.79 1171.57 C 1700.93 1172.22 1685.29 1171.88 1672.22 1171.91 C 1672.1 1161.4 1670.55 1126.35 1673.98 1119.25 C 1676.37 1116.71 1678.58 1116.86 1682.12 1116.34 z"/>
<path transform="translate(0,0)" fill="#3DD68C" d="M 1679.45 1048.25 C 1687.77 1048.04 1696.1 1047.87 1704.42 1047.75 C 1720.95 1047.57 1724.97 1051.56 1724.26 1068.04 C 1723.82 1078.25 1723.86 1089.19 1723.67 1099.46 C 1720.08 1100.46 1717.43 1101.52 1713.94 1102.86 C 1704.23 1104.02 1687.7 1104.99 1678.27 1103.12 C 1670.37 1101.55 1671.5 1079.72 1671.72 1072.78 C 1672.01 1063.68 1669.63 1052.13 1679.45 1048.25 z"/>
<path transform="translate(0,0)" fill="#3DD68C" d="M 324.513 872 L 371.883 872.169 C 371.906 880.42 372.523 922.507 371.115 927.214 L 369.157 927.88 C 354.409 927.942 339.66 927.924 324.912 927.827 C 317.248 898.221 320.164 899.543 324.513 872 z"/>
<path transform="translate(0,0)" fill="#3DD68C" d="M 1552.31 1115.99 C 1559.61 1116.11 1591.73 1114.38 1596.58 1118.33 C 1601.75 1122.55 1600.02 1150.42 1599.95 1157.67 C 1599.89 1163.4 1599.83 1166.98 1595.46 1170.97 C 1583.83 1172.51 1564.12 1171.99 1552.36 1171.19 C 1543.83 1147.92 1549.67 1138.76 1552.19 1117.09 L 1552.31 1115.99 z"/>
<path transform="translate(0,0)" fill="#3DD68C" d="M 454.497 872.134 C 465.576 871.971 481.194 871.59 491.872 872.758 C 496.596 886.741 499.088 914.702 490.683 927.442 L 487.25 927.905 C 437.074 928.494 443.302 931.441 444.282 882.614 C 448.362 877.103 448.96 876.268 454.497 872.134 z"/>
<path transform="translate(0,0)" fill="#3DD68C" d="M 324.477 1019.91 C 340.161 1020.2 356.194 1020.09 371.908 1020.15 C 371.861 1033.89 372.486 1047.94 372.066 1061.66 C 371.873 1067.97 371.886 1071.01 367.455 1075.03 C 356.661 1076.44 338.981 1076.15 328.244 1075.16 C 313.695 1053.14 321.635 1042.43 324.477 1019.91 z"/>
<path transform="translate(0,0)" fill="#3DD68C" d="M 448.693 1020.08 C 461.778 1020.06 478.995 1019.61 491.672 1020.74 C 498.095 1038.74 497.648 1057.76 491.257 1075.68 C 479.702 1075.95 463.757 1076.52 452.716 1074.75 C 450.884 1073.14 446.97 1069.8 446.182 1067.66 C 440.944 1053.46 444.034 1033.62 448.693 1020.08 z"/>
<path transform="translate(0,0)" fill="#3DD68C" d="M 1552.63 1048.01 C 1604.27 1048.48 1600.72 1038.88 1599.83 1094.43 L 1591.68 1102.03 C 1588.49 1105.06 1563.45 1104.58 1559.6 1103.34 C 1541.62 1097.59 1548.59 1060.24 1552.63 1048.01 z"/>
<path transform="translate(0,0)" fill="#3DD68C" d="M 1672.06 972.154 C 1686.34 972.047 1703.83 971.421 1717.86 973.126 C 1727.51 974.3 1724.3 1015.54 1721.7 1022.25 C 1712.93 1025 1683.24 1024 1672.21 1023.92 C 1671.97 1006.78 1672.1 989.323 1672.06 972.154 z"/>
<path transform="translate(0,0)" fill="#3DD68C" d="M 579.225 872.405 C 588.387 871.957 607.978 870.798 615.974 873.647 C 621.219 878.891 621.49 924.152 618.431 927.749 L 614.25 927.889 L 572.132 927.859 C 571.958 915.2 570.558 889.204 573.485 876.647 C 574.1 874.009 576.969 873.304 579.225 872.405 z"/>
<path transform="translate(0,0)" fill="#3DD68C" d="M 572.029 1020.08 C 583.997 1020.26 599.984 1019.35 611.338 1020.17 C 624.462 1021.11 620.689 1066.54 617.714 1074.33 C 560.8 1086.27 571.966 1063.36 572.029 1020.08 z"/>
<path transform="translate(0,0)" fill="#3DD68C" d="M 451.46 944.322 C 463.526 943.746 479.941 943.83 491.863 944.531 C 495.735 956.859 498.642 978.508 494.398 991.696 C 493.636 994.064 490.78 994.684 488.756 995.335 C 479.824 996.073 456.505 996.853 448.589 994.45 C 441.291 988.564 443.333 957.268 445.744 948.265 C 446.453 945.618 449.244 945.119 451.46 944.322 z"/>
<path transform="translate(0,0)" fill="#3DD68C" d="M 324.204 943.986 L 371.935 944.122 C 371.956 950.867 372.616 990.382 371.124 995.22 L 369.16 995.859 C 354.662 995.884 338.895 996.199 324.548 995.325 C 315.166 971.059 322.693 966.179 324.204 943.986 z"/>
<path transform="translate(0,0)" fill="#3DD68C" d="M 1552.82 972.179 C 1561.91 972.256 1590.59 969.679 1595.52 974.266 C 1602.11 980.412 1602.71 1016.61 1595.14 1023.39 C 1582.12 1024.36 1565.37 1024.05 1552.33 1023.55 C 1545.99 1005.98 1546.44 989.521 1552.82 972.179 z"/>
<path transform="translate(0,0)" fill="#3DD68C" d="M 572.035 944.082 C 628.725 944.298 620.301 937.552 619.861 995.866 L 572.257 995.916 C 571.944 978.816 572.096 961.222 572.035 944.082 z"/>
<path transform="translate(0,0)" fill="#3DD68C" d="M 1428.05 1116.05 L 1471.91 1116.1 L 1471.87 1171.96 C 1457.43 1171.76 1442.64 1171.92 1428.17 1171.91 L 1428.05 1116.05 z"/>
<path transform="translate(0,0)" fill="#3DD68C" d="M 1428.02 1048.04 L 1471.96 1048.14 C 1471.88 1059.55 1473.55 1093.45 1469.79 1102.17 C 1460.21 1105.17 1438.75 1104.01 1428.1 1103.84 L 1428.02 1048.04 z"/>
<path transform="translate(0,0)" fill="#3DD68C" d="M 1428.09 972.166 L 1471.91 972.172 L 1471.92 1023.95 L 1428.21 1023.88 L 1428.09 972.166 z"/>
</svg>